# xmcd CD database file
#
# Track frame offsets:
#	150
#	16325
#	37282
#	53465
#
# Disc length: 989 seconds
#
# Revision: 0
# Processed by: cddbd v1.5PL3 Copyright (c) Steve Scherf et al.
# Submitted via: CDex 1.50
#
DISCID=2a03db04
DTITLE=瀬能あづさ - 君の翼〜だいじょうぶだから〜
DYEAR=1992
DGENRE=JPop
TTITLE0=君の翼〜だいじょうぶだから〜
TTITLE1=きれいな棘
TTITLE2=君の翼〜だいじょうぶだから〜 (ｶﾗｵｹ)
TTITLE3=きれいな棘 (ｶﾗｵｹ)
EXTD=YEAR: 1992/06/03
EXTT0=
EXTT1=
EXTT2=
EXTT3=
PLAYORDER=
